<svg width="91" height="92" viewBox="0 0 91 92" fill="none" xmlns="http://www.w3.org/2000/svg">
<circle cx="45.4338" cy="46.2004" r="45.217" fill="#0F172A"/>
<path d="M35.548 34.5723C36.8727 33.2721 38.455 31.9842 40.2949 30.7085C42.1593 29.4329 44.3181 28.7951 46.7713 28.7951C49.985 28.7951 52.6589 29.6537 54.7932 31.3709C56.9275 33.0636 58.4975 35.0384 59.5033 37.2953C60.2883 39.0861 60.7544 40.8647 60.9016 42.631C61.0733 44.3728 61.1592 46.0164 61.1592 47.5619V66.1447C61.1592 67.1505 60.7912 68.0214 60.0553 68.7574C59.3439 69.4688 58.4852 69.8245 57.4794 69.8245C56.4736 69.8245 55.6028 69.4688 54.8668 68.7574C54.1554 68.0214 53.7997 67.1505 53.7997 66.1447V47.5619C53.7997 46.1145 53.7261 44.7775 53.5789 43.5509C53.4562 42.3243 53.1864 41.2449 52.7693 40.3127C52.3032 39.2333 51.5795 38.2766 50.5983 37.4425C49.617 36.5839 48.3659 36.1546 46.8449 36.1546C43.2142 36.1546 40.4176 37.5406 38.455 40.3127C36.517 43.0848 35.5603 46.8259 35.5848 51.536L35.6216 66.2183C35.6216 67.2241 35.2536 68.095 34.5177 68.831C33.8062 69.5424 32.9476 69.8981 31.9418 69.8981C30.9115 69.8981 30.0406 69.5424 29.3292 68.831C28.6178 68.095 28.262 67.2119 28.262 66.1815L28.1884 32.3644C28.1884 31.3586 28.4583 30.5 28.998 29.7886C29.5622 29.0526 30.3472 28.6847 31.3531 28.6847C32.3589 28.6847 33.1316 29.0526 33.6713 29.7886C34.211 30.5 34.628 31.3586 34.9224 32.3644L35.548 34.5723Z" fill="white"/>
</svg>
